<svg width="285" height="178" viewBox="0 0 285 178" fill="none" xmlns="http://www.w3.org/2000/svg">
<path d="M261.172 173.708V9.0803C261.231 4.42044 257.565 0.557667 253.012 0.496353C253.012 0.496353 253.012 0.496353 252.953 0.496353H29.8782C25.3256 0.557667 21.6599 4.35912 21.6599 9.01898C21.6599 9.01898 21.6599 9.01898 21.6599 9.0803V173.708H261.172Z" fill="black"/>
<path d="M186.675 6.56642H252.894C254.195 6.56642 255.259 7.67007 255.259 9.01898V165.369H186.675V6.56642Z" fill="#5AA9E6"/>
<path d="M210.325 6.56642H142.332V165.369H210.325V6.56642Z" fill="#7FC8F8"/>
<path d="M164.208 6.56642H96.2153V165.369H164.208V6.56642Z" fill="#F9F9F9"/>
<path d="M119.274 6.56642H50.6897V165.369H119.274V6.56642Z" fill="#FFE45E"/>
<path d="M29.9963 6.56642H73.7481V165.369H27.6313V9.01898C27.6313 7.67007 28.6956 6.56642 29.9963 6.56642Z" fill="#FF6392"/>
<path d="M0.434326 171.562H284.23C284.23 174.934 281.569 177.693 278.318 177.693H6.34674C3.09491 177.693 0.434326 174.934 0.434326 171.562Z" fill="black"/>
</svg>
